<svg width="439" height="342" viewBox="0 0 439 342" fill="none" xmlns="http://www.w3.org/2000/svg">
<path d="M293.311 88.0569C284.531 86.1169 276.001 83.4369 268.211 79.4069C266.571 78.5569 265.001 77.6369 263.471 76.6369C249.501 67.4669 239.961 52.2969 228.771 40.2169C180.841 -11.5331 96.7909 4.82692 52.7909 53.1069C34.0009 73.7169 21.4209 99.9669 17.3109 127.557C9.00094 183.437 33.5509 242.977 91.7209 257.957C126.781 266.987 160.571 257.007 195.381 253.097C204.791 252.037 214.221 252.077 223.601 252.897C227.811 253.257 232.011 253.787 236.191 254.447C243.201 255.547 250.161 257.007 257.051 258.717C262.901 260.157 268.691 261.777 274.411 263.477C275.451 263.787 276.491 264.107 277.531 264.427C293.191 269.317 309.641 275.947 326.241 280.847C326.771 281.007 327.311 281.167 327.851 281.317C340.201 284.877 352.621 287.417 364.851 287.487C421.701 287.817 449.231 222.617 435.431 173.987C421.721 125.667 374.591 105.107 329.241 94.8869C326.691 94.3169 324.151 93.7669 321.621 93.2569C319.131 92.7569 316.661 92.2869 314.201 91.8369C312.641 91.5469 311.091 91.2769 309.541 91.0169C307.841 90.7169 306.151 90.4369 304.471 90.1669C303.801 90.0569 303.131 89.9469 302.461 89.8369C299.391 89.3169 296.331 88.7269 293.311 88.0569Z" fill="#B5C2F6"/>
<path d="M97.291 299.05C88.052 299.05 79.258 297.949 71.06 295.76C59.633 292.708 49.017 287.452 39.509 280.137C27.967 271.26 18.216 259.177 11.308 245.198C4.35904 231.133 0.772046 216.109 0.936046 201.75C1.06105 190.866 3.32305 180.74 7.65905 171.653C12.342 161.838 19.363 153.455 28.527 146.734C37.291 140.305 47.909 134.866 61.943 129.617C62.466 129.416 62.996 129.222 63.518 129.034C72.455 125.756 81.743 122.901 90.725 120.141C98.296 117.814 105.448 115.617 112.418 113.183C113.443 112.821 114.468 112.457 115.487 112.086C121.777 109.792 127.262 107.658 132.258 105.563C139.239 102.65 145.547 99.706 151.543 96.562C155.439 94.524 159.149 92.419 162.568 90.306C171.127 85.042 178.494 79.492 185.088 73.339C191.36 67.491 197.457 61.294 203.354 55.301C221.428 36.932 240.116 17.938 265.462 7.62298C291.623 -3.02602 319.188 -1.98802 345.175 10.625C368.886 22.134 389.455 42.52 403.093 68.027C416.155 92.474 421.803 121.239 418.997 149.026C417.164 167.215 411.246 185.667 401.885 202.386C392.492 219.16 379.868 233.76 365.378 244.608C353.775 253.295 341.238 259.448 328.119 262.896C314.086 266.584 299.657 267.084 285.233 264.384C280.226 263.446 275.07 262.154 270.084 260.903C258.834 258.08 247.2 255.157 235.693 255.828C233.843 255.937 232.062 256.134 230.249 256.427C222.428 257.7 214.159 260.319 204.971 264.435C202.259 265.647 199.431 267 196.568 268.457L194.758 269.391C192.986 270.311 191.531 271.055 190.179 271.731C188.626 272.525 187.241 273.218 185.947 273.851C183.509 275.052 181.282 276.126 179.141 277.134C177.03 278.127 174.71 279.185 172.049 280.368C146.843 291.532 124.843 297.566 104.79 298.816C102.26 298.972 99.759 299.05 97.291 299.05ZM301.888 0.585979C289.672 0.585979 277.468 3.00498 265.553 7.85498C240.255 18.151 221.585 37.126 203.529 55.477C197.631 61.472 191.532 67.67 185.256 73.522C178.649 79.686 171.27 85.247 162.696 90.519C159.272 92.634 155.557 94.742 151.656 96.784C145.654 99.931 139.34 102.878 132.352 105.794C127.353 107.892 121.864 110.027 115.571 112.322C114.55 112.694 113.524 113.057 112.498 113.42C105.523 115.856 98.37 118.054 90.796 120.381C81.817 123.141 72.533 125.994 63.601 129.27C63.08 129.457 62.552 129.651 62.03 129.852C48.017 135.094 37.418 140.522 28.673 146.936C19.544 153.632 12.549 161.984 7.88304 171.761C3.56204 180.816 1.30805 190.907 1.18405 201.753C1.02005 216.073 4.59804 231.058 11.53 245.087C18.421 259.033 28.148 271.085 39.659 279.94C49.142 287.234 59.728 292.476 71.122 295.519C81.484 298.286 92.804 299.312 104.771 298.565C124.794 297.318 146.767 291.29 171.944 280.138C174.603 278.955 176.922 277.898 179.031 276.906C181.17 275.898 183.395 274.825 185.833 273.625C187.126 272.993 188.509 272.3 190.062 271.507C191.413 270.831 192.867 270.088 194.639 269.167L196.45 268.233C199.317 266.774 202.148 265.42 204.864 264.206C214.072 260.081 222.362 257.456 230.204 256.181C232.026 255.886 233.815 255.689 235.674 255.579C247.224 254.909 258.871 257.835 270.14 260.661C275.123 261.911 280.276 263.204 285.276 264.14C299.66 266.833 314.053 266.335 328.051 262.656C341.139 259.217 353.646 253.078 365.224 244.41C379.686 233.583 392.287 219.011 401.662 202.267C411.007 185.577 416.914 167.16 418.744 149.004C421.544 121.267 415.906 92.552 402.867 68.149C389.255 42.688 368.724 22.34 345.06 10.854C330.978 4.01298 316.425 0.585979 301.888 0.585979Z" fill="#637ED3"/>
<path d="M118.491 285.794C117.939 285.794 117.491 285.347 117.491 284.794V271.19C117.491 270.637 117.939 270.19 118.491 270.19C119.043 270.19 119.491 270.637 119.491 271.19V284.795C119.491 285.347 119.044 285.794 118.491 285.794Z" fill="#FBB136"/>
<path d="M125.294 278.992H111.69C111.138 278.992 110.69 278.545 110.69 277.992C110.69 277.439 111.138 276.992 111.69 276.992H125.294C125.846 276.992 126.294 277.439 126.294 277.992C126.294 278.545 125.846 278.992 125.294 278.992Z" fill="#FBB136"/>
<path d="M286.774 55.2619C286.221 55.2619 285.774 54.8139 285.774 54.2619V40.658C285.774 40.106 286.221 39.658 286.774 39.658C287.327 39.658 287.774 40.106 287.774 40.658V54.2619C287.774 54.8139 287.327 55.2619 286.774 55.2619Z" fill="#FBB136"/>
<path d="M293.577 48.46H279.973C279.42 48.46 278.973 48.012 278.973 47.46C278.973 46.908 279.42 46.46 279.973 46.46H293.577C294.13 46.46 294.577 46.908 294.577 47.46C294.577 48.012 294.129 48.46 293.577 48.46Z" fill="#FBB136"/>
<path d="M88.3059 12.398C88.0499 12.398 87.7939 12.3 87.5989 12.105C87.2079 11.714 87.2079 11.082 87.5989 10.691L97.2189 1.07096C97.6099 0.67996 98.2419 0.67996 98.6329 1.07096C99.0239 1.46196 99.0239 2.09396 98.6329 2.48496L89.0129 12.105C88.8169 12.301 88.5619 12.398 88.3059 12.398Z" fill="#FBB136"/>
<path d="M97.9249 12.398C97.6689 12.398 97.4129 12.3 97.2179 12.105L87.5979 2.48496C87.2069 2.09396 87.2069 1.46096 87.5979 1.07096C87.9889 0.67996 88.6209 0.67996 89.0119 1.07096L98.6319 10.691C99.0229 11.082 99.0229 11.714 98.6319 12.105C98.4369 12.301 98.1809 12.398 97.9249 12.398Z" fill="#FBB136"/>
<path d="M30.8569 239.571C30.3049 239.571 29.8569 239.124 29.8569 238.571V224.967C29.8569 224.414 30.3049 223.967 30.8569 223.967C31.4089 223.967 31.8569 224.414 31.8569 224.967V238.571C31.8569 239.123 31.4089 239.571 30.8569 239.571Z" fill="#407FFE"/>
<path d="M37.6592 232.768H24.0552C23.5032 232.768 23.0552 232.321 23.0552 231.768C23.0552 231.215 23.5032 230.768 24.0552 230.768H37.6592C38.2112 230.768 38.6592 231.215 38.6592 231.768C38.6592 232.321 38.2122 232.768 37.6592 232.768Z" fill="#407FFE"/>
<path d="M259.966 281.752C259.71 281.752 259.454 281.654 259.259 281.459L249.64 271.839C249.249 271.448 249.249 270.816 249.64 270.425C250.031 270.034 250.663 270.034 251.054 270.425L260.673 280.045C261.064 280.436 261.064 281.068 260.673 281.459C260.478 281.655 260.222 281.752 259.966 281.752Z" fill="#407FFE"/>
<path d="M250.347 281.752C250.091 281.752 249.835 281.654 249.64 281.459C249.249 281.068 249.249 280.436 249.64 280.045L259.259 270.425C259.65 270.034 260.282 270.034 260.673 270.425C261.064 270.816 261.064 271.448 260.673 271.839L251.054 281.459C250.859 281.655 250.603 281.752 250.347 281.752Z" fill="#407FFE"/>
<path d="M411.369 108.503C410.816 108.503 410.369 108.055 410.369 107.503V93.8989C410.369 93.3469 410.816 92.8989 411.369 92.8989C411.922 92.8989 412.369 93.3469 412.369 93.8989V107.503C412.369 108.055 411.921 108.503 411.369 108.503Z" fill="#407FFE"/>
<path d="M418.171 101.701H404.567C404.014 101.701 403.567 101.253 403.567 100.701C403.567 100.149 404.014 99.7009 404.567 99.7009H418.171C418.724 99.7009 419.171 100.149 419.171 100.701C419.171 101.253 418.724 101.701 418.171 101.701Z" fill="#407FFE"/>
<path d="M16.415 205.523C16.415 202.946 14.326 200.858 11.75 200.858C9.17296 200.858 7.08496 202.947 7.08496 205.523C7.08496 208.099 9.17396 210.188 11.75 210.188C14.326 210.189 16.415 208.1 16.415 205.523Z" fill="#B5C2F6"/>
<path d="M228.885 15.936C228.885 13.359 226.796 11.271 224.22 11.271C221.643 11.271 219.555 13.36 219.555 15.936C219.555 18.512 221.644 20.601 224.22 20.601C226.796 20.601 228.885 18.512 228.885 15.936Z" fill="#B5C2F6"/>
<path d="M432.671 124.066C432.671 121.489 430.582 119.401 428.006 119.401C425.43 119.401 423.341 121.49 423.341 124.066C423.341 126.642 425.43 128.731 428.006 128.731C430.582 128.731 432.671 126.642 432.671 124.066Z" fill="#B5C2F6"/>
<path d="M83.621 304.426C88.8649 304.426 93.116 300.175 93.116 294.931C93.116 289.687 88.8649 285.436 83.621 285.436C78.377 285.436 74.126 289.687 74.126 294.931C74.126 300.175 78.377 304.426 83.621 304.426Z" fill="#B5C2F6"/>
<path d="M311.866 31.783C317.042 30.9403 320.555 26.0613 319.712 20.8855C318.869 15.7098 313.99 12.1971 308.814 13.0398C303.639 13.8825 300.126 18.7615 300.969 23.9372C301.811 29.113 306.69 32.6257 311.866 31.783Z" fill="#B5C2F6"/>
<path d="M252.981 210.643H56.5892C48.4122 210.643 41.7842 204.014 41.7842 195.838V49.338C41.7842 41.161 48.4132 34.533 56.5892 34.533H252.981C261.158 34.533 267.786 41.162 267.786 49.338V195.838C267.786 204.014 261.158 210.643 252.981 210.643Z" fill="#607BFF"/>
<path d="M56.2572 203.313C52.1352 203.313 48.7822 199.959 48.7822 195.837V76.402C48.7822 72.28 52.1352 68.927 56.2572 68.927H252.649C256.771 68.927 260.125 72.281 260.125 76.402V195.837C260.125 199.959 256.771 203.313 252.649 203.313H56.2572Z" fill="#EBF3FF"/>
<path d="M77.4941 76.9709H55.4111V98.473H77.4941V76.9709Z" fill="#E1ECFF"/>
<path d="M106.938 76.9709H84.855V98.473H106.938V76.9709Z" fill="#E1ECFF"/>
<path d="M136.382 76.9709H114.299V98.473H136.382V76.9709Z" fill="#FBB136"/>
<path d="M165.826 76.9709H143.743V98.473H165.826V76.9709Z" fill="#E1ECFF"/>
<path d="M195.271 76.9709H173.188V98.473H195.271V76.9709Z" fill="#E1ECFF"/>
<path d="M224.715 76.9709H202.632V98.473H224.715V76.9709Z" fill="#E1ECFF"/>
<path d="M254.159 76.9709H232.076V98.473H254.159V76.9709Z" fill="#6177FF"/>
<path d="M77.4941 108.883H55.4111V130.385H77.4941V108.883Z" fill="#F0746A"/>
<path d="M106.938 108.883H84.855V130.385H106.938V108.883Z" fill="#E1ECFF"/>
<path d="M136.382 108.883H114.299V130.385H136.382V108.883Z" fill="#E1ECFF"/>
<path d="M165.826 108.883H143.743V130.385H165.826V108.883Z" fill="#E1ECFF"/>
<path d="M195.271 108.883H173.188V130.385H195.271V108.883Z" fill="#E1ECFF"/>
<path d="M224.715 108.883H202.632V130.385H224.715V108.883Z" fill="#E1ECFF"/>
<path d="M254.159 108.883H232.076V130.385H254.159V108.883Z" fill="#F0746A"/>
<path d="M77.4941 140.796H55.4111V162.298H77.4941V140.796Z" fill="#E1ECFF"/>
<path d="M106.938 140.796H84.855V162.298H106.938V140.796Z" fill="#F0746A"/>
<path d="M136.382 140.796H114.299V162.298H136.382V140.796Z" fill="#E1ECFF"/>
<path d="M165.826 140.796H143.743V162.298H165.826V140.796Z" fill="#6177FF"/>
<path d="M195.271 140.796H173.188V162.298H195.271V140.796Z" fill="#E1ECFF"/>
<path d="M224.715 140.796H202.632V162.298H224.715V140.796Z" fill="#6177FF"/>
<path d="M254.159 140.796H232.076V162.298H254.159V140.796Z" fill="#E1ECFF"/>
<path d="M77.4941 172.708H55.4111V194.21H77.4941V172.708Z" fill="#F0746A"/>
<path d="M106.938 172.708H84.855V194.21H106.938V172.708Z" fill="#6177FF"/>
<path d="M136.382 172.708H114.299V194.21H136.382V172.708Z" fill="#E1ECFF"/>
<path d="M165.826 172.708H143.743V194.21H165.826V172.708Z" fill="#E1ECFF"/>
<path d="M195.271 172.708H173.188V194.21H195.271V172.708Z" fill="#E1ECFF"/>
<path d="M224.715 172.708H202.632V194.21H224.715V172.708Z" fill="#F0746A"/>
<path d="M254.159 172.708H232.076V194.21H254.159V172.708Z" fill="#6177FF"/>
<path d="M63.442 59.02H60.025L58.012 52.292C58.144 53.179 58.369 54.451 58.369 56.159V59.02H55.958V49.802H59.31L61.403 56.557C61.23 55.484 61.032 54.425 61.032 52.756V49.802H63.442V59.02Z" fill="white"/>
<path d="M74.444 54.398C74.444 57.392 72.908 59.286 70.139 59.286C67.371 59.286 65.834 57.458 65.834 54.398C65.834 51.405 67.371 49.538 70.139 49.538C72.908 49.538 74.444 51.338 74.444 54.398ZM68.67 54.398C68.67 56.531 69.107 57.352 70.14 57.352C71.2 57.352 71.611 56.531 71.611 54.398C71.611 52.266 71.173 51.471 70.14 51.471C69.106 51.471 68.67 52.266 68.67 54.398Z" fill="white"/>
<path d="M81.8701 59.02H78.3471L75.8701 49.802H78.7441L80.1481 57.126L81.4061 49.802H84.2011L81.8701 59.02Z" fill="white"/>
<path d="M91.773 51.696H88.726V53.418H91.402V55.259H88.726V57.113H91.985V59.02H85.998V49.802H92.051L91.773 51.696Z" fill="white"/>
<path d="M104.153 59.02H101.465L101.399 55.749C101.373 54.557 101.373 53.365 101.492 51.988L100.406 58.093H97.8232L96.6582 51.988C96.8042 53.511 96.8562 54.491 96.8302 55.736L96.7642 59.021H94.0762L94.7382 49.803H98.1022L99.1622 55.776L100.116 49.803H103.493L104.153 59.02Z" fill="white"/>
<path d="M113.949 56.292C113.949 58.478 112.135 59.021 109.711 59.021H106.479V49.803H109.353C111.936 49.803 113.565 50.386 113.565 52.187C113.565 53.379 112.717 53.922 111.896 54.134C112.902 54.345 113.949 54.848 113.949 56.292ZM109.207 51.67V53.365H109.671C110.505 53.365 110.797 53.113 110.797 52.464C110.797 51.921 110.479 51.67 109.605 51.67H109.207ZM111.141 56.107C111.141 55.392 110.691 55.087 109.843 55.087H109.207V57.1H109.737C110.571 57.1 111.141 56.928 111.141 56.107Z" fill="white"/>
<path d="M122.051 51.696H119.004V53.418H121.68V55.259H119.004V57.113H122.263V59.02H116.276V49.802H122.329L122.051 51.696Z" fill="white"/>
<path d="M127.954 55.736H127.451V59.021H124.722V49.803H128.099C130.735 49.803 132.06 50.703 132.06 52.73C132.06 53.895 131.556 54.584 130.43 55.233L132.682 59.021H129.662L127.954 55.736ZM127.451 53.908H128.166C128.908 53.908 129.278 53.537 129.278 52.729C129.278 52 128.841 51.669 128.034 51.669H127.451V53.908Z" fill="white"/>
<path d="M225.984 52.444C225.984 54.126 224.937 55.279 222.17 58.086H226.195L226.063 59.026H220.898V58.139C224.049 54.828 224.818 53.967 224.818 52.496C224.818 51.529 224.209 50.96 223.321 50.96C222.553 50.96 222.037 51.278 221.454 51.94L220.725 51.358C221.441 50.483 222.275 50.046 223.375 50.046C224.977 50.047 225.984 51.08 225.984 52.444Z" fill="white"/>
<path d="M235.026 54.616C235.026 57.556 234.059 59.186 232.112 59.186C230.166 59.186 229.199 57.557 229.199 54.603C229.199 51.649 230.166 50.047 232.112 50.047C234.059 50.047 235.026 51.663 235.026 54.616ZM230.352 54.603C230.352 57.239 230.96 58.298 232.113 58.298C233.253 58.298 233.875 57.238 233.875 54.616C233.875 51.981 233.253 50.934 232.113 50.934C230.96 50.934 230.352 51.981 230.352 54.603Z" fill="white"/>
<path d="M242.81 52.444C242.81 54.126 241.764 55.279 238.996 58.086H243.023L242.89 59.026H237.724V58.139C240.876 54.828 241.645 53.967 241.645 52.496C241.645 51.529 241.036 50.96 240.148 50.96C239.38 50.96 238.864 51.278 238.281 51.94L237.553 51.358C238.269 50.483 239.103 50.046 240.202 50.046C241.805 50.047 242.81 51.08 242.81 52.444Z" fill="white"/>
<path d="M251.853 54.616C251.853 57.556 250.886 59.186 248.939 59.186C246.993 59.186 246.026 57.557 246.026 54.603C246.026 51.649 246.993 50.047 248.939 50.047C250.887 50.047 251.853 51.663 251.853 54.616ZM247.179 54.603C247.179 57.239 247.787 58.298 248.94 58.298C250.08 58.298 250.702 57.238 250.702 54.616C250.702 51.981 250.08 50.934 248.94 50.934C247.787 50.934 247.179 51.981 247.179 54.603Z" fill="white"/>
<path d="M163.918 250.463C184.878 245.425 197.786 224.349 192.748 203.389C187.71 182.429 166.634 169.521 145.674 174.559C124.714 179.597 111.806 200.673 116.844 221.633C121.882 242.593 142.958 255.501 163.918 250.463Z" fill="#FBB136"/>
<path d="M160.065 244.804C177.893 241.881 189.975 225.06 187.052 207.233C184.129 189.406 167.308 177.325 149.48 180.248C131.653 183.171 119.571 199.992 122.494 217.819C125.417 235.645 142.238 247.727 160.065 244.804Z" fill="#FFDB76"/>
<path d="M154.786 214.026C154.326 214.026 153.881 213.814 153.592 213.435L139.726 195.226C139.224 194.567 139.352 193.625 140.011 193.124C140.67 192.622 141.612 192.751 142.113 193.408L153.285 208.08V183.574C153.285 182.746 153.956 182.074 154.785 182.074C155.614 182.074 156.285 182.746 156.285 183.574V212.526C156.285 213.17 155.874 213.742 155.265 213.947C155.107 214 154.945 214.026 154.786 214.026Z" fill="white"/>
<path d="M164.247 170.535H145.612V175.971H164.247V170.535Z" fill="#FBB136"/>
<path d="M165.739 170.535H144.119C142.618 170.535 141.401 169.318 141.401 167.817C141.401 166.316 142.618 165.099 144.119 165.099H165.739C167.24 165.099 168.457 166.316 168.457 167.817C168.457 169.318 167.24 170.535 165.739 170.535Z" fill="#FFDB76"/>
<path d="M113.475 221.351C112.218 221.351 111.198 220.332 111.198 219.074V205.977C111.198 204.72 112.217 203.7 113.475 203.7C114.732 203.7 115.752 204.719 115.752 205.977V219.074C115.752 220.331 114.732 221.351 113.475 221.351Z" fill="#FFDB76"/>
<path d="M126.518 165.799H12.4039C7.42993 165.799 3.39893 161.767 3.39893 156.794V120.224C3.39893 115.25 7.43093 111.219 12.4039 111.219H126.517C131.49 111.219 135.522 115.251 135.522 120.224V156.794C135.523 161.768 131.491 165.799 126.518 165.799Z" fill="#407FFE"/>
<path d="M120.926 134.756H17.996C17.123 134.756 16.415 134.048 16.415 133.175C16.415 132.302 17.123 131.594 17.996 131.594H120.926C121.799 131.594 122.507 132.302 122.507 133.175C122.507 134.048 121.799 134.756 120.926 134.756Z" fill="white"/>
<path d="M120.926 143.656H17.996C17.123 143.656 16.415 142.948 16.415 142.075C16.415 141.202 17.123 140.494 17.996 140.494H120.926C121.799 140.494 122.507 141.202 122.507 142.075C122.507 142.948 121.799 143.656 120.926 143.656Z" fill="white"/>
<path d="M103.532 111.219L125.293 84.314L122.806 111.219H103.532Z" fill="#407FFE"/>
<path d="M255.689 232.741C270.713 229.239 280.054 214.221 276.552 199.196C273.05 184.172 258.032 174.831 243.007 178.333C227.983 181.835 218.642 196.853 222.144 211.878C225.646 226.902 240.664 236.243 255.689 232.741Z" fill="#328F60"/>
<path d="M239.46 217.056C239.35 217.056 239.239 217.042 239.131 217.014C238.756 216.917 238.445 216.659 238.279 216.309L231.901 202.854C231.591 202.201 231.87 201.421 232.522 201.112C233.177 200.802 233.956 201.081 234.264 201.733L239.973 213.776L264.87 196.011C265.459 195.593 266.275 195.729 266.694 196.316C267.114 196.904 266.977 197.721 266.389 198.14L240.22 216.813C239.996 216.973 239.729 217.056 239.46 217.056Z" fill="white"/>
<path d="M414.539 201.887C413.549 204.427 412.479 206.937 411.369 209.387H411.359C406.159 191.477 395.149 184.507 388.859 181.917C386.059 180.757 384.199 180.477 384.199 180.477C384.939 178.727 385.769 177.107 386.639 175.607C386.639 175.607 405.239 176.117 414.539 201.887Z" fill="white"/>
<path d="M376.059 175.607L391.529 168.797C389.829 170.737 388.149 172.987 386.639 175.607C385.769 177.107 384.939 178.727 384.199 180.477C383.229 182.747 382.379 185.217 381.709 187.927L376.059 175.607Z" fill="#CE3F38"/>
<path d="M389.209 204.267L381.709 187.927C382.379 185.217 383.229 182.747 384.199 180.477C384.199 180.477 386.059 180.757 388.859 181.917C388.859 181.917 387.859 191.167 389.209 204.267Z" fill="#DD6936"/>
<path d="M386.419 287.247L384.649 280.847C385.179 281.007 385.719 281.167 386.259 281.317C386.319 283.307 386.379 285.287 386.419 287.247Z" fill="#CE3F38"/>
<path d="M386.259 281.317C385.719 281.167 385.179 281.007 384.649 280.847L382.049 271.407C383.319 271.217 384.589 270.937 385.849 270.567C386.009 274.087 386.139 277.707 386.259 281.317Z" fill="#CE3F38"/>
<path d="M384.199 247.897C384.919 253.757 385.459 261.867 385.849 270.567C384.589 270.937 383.319 271.217 382.049 271.407L375.659 248.267V248.257C377.919 249.117 380.749 249.277 384.199 247.897Z" fill="#CE3F38"/>
<path d="M379.799 104.707H379.789L378.349 102.667L372.209 94.017L368.539 96.987L363.499 101.067L355.749 107.337C357.219 106.447 358.999 106.197 360.659 106.647L365.389 107.917C365.929 108.057 366.419 108.297 366.869 108.597V102.007C366.869 101.347 367.139 100.747 367.569 100.317C367.839 100.047 368.169 99.847 368.539 99.727C368.759 99.657 368.999 99.617 369.249 99.617C370.489 99.617 371.529 100.567 371.639 101.797L372.779 114.847L373.109 118.527L374.309 117.447L383.139 109.417L379.799 104.707Z" fill="#212155"/>
<path d="M363.099 94.9871C363.519 96.7371 363.709 98.7571 363.499 101.067L355.749 107.337L354.659 107.997C353.479 108.707 352.949 110.147 353.389 111.457L353.369 112.037C351.529 111.937 349.709 112.527 348.269 113.687C348.289 112.917 348.349 112.157 348.459 111.407C350.599 96.3771 363.099 94.9871 363.099 94.9871Z" fill="#DD6936"/>
<path d="M344.899 116.427L348.219 113.717C348.239 113.707 348.249 113.687 348.269 113.687C348.289 112.917 348.349 112.157 348.459 111.407C350.599 96.377 363.099 94.987 363.099 94.987C362.599 92.877 361.749 91.167 360.869 89.837C360.699 89.587 360.529 89.347 360.359 89.117C359.149 87.507 357.489 86.307 355.669 85.437C347.689 81.597 348.509 74.337 348.509 74.337C349.559 69.827 347.909 67.627 346.619 66.637C346.019 66.177 345.279 65.937 344.529 65.837C342.999 65.617 341.739 65.177 340.699 64.627C339.459 63.977 338.489 63.037 337.829 61.947H337.819C332.049 66.247 327.969 67.257 325.099 66.717L325.049 66.977C325.049 66.977 323.739 70.747 321.969 76.357C321.929 76.447 321.909 76.537 321.879 76.637C319.209 85.057 315.529 97.447 313.589 107.497C313.079 110.107 312.689 112.567 312.469 114.747C312.029 118.977 313.819 123.067 317.049 125.577C317.969 126.297 318.999 126.887 320.139 127.307C320.509 127.447 320.899 127.577 321.299 127.687C323.629 128.387 326.539 128.767 330.159 128.557C330.609 128.537 331.059 128.487 331.509 128.407C332.529 128.257 333.539 127.987 334.519 127.637C337.749 126.477 343.949 124.197 345.839 123.097L345.899 123.137C346.619 122.227 347.549 121.657 348.569 121.317V121.307C348.529 121.037 348.499 120.647 348.469 120.177L347.689 120.597C347.309 120.797 346.899 120.897 346.489 120.897C345.749 120.897 345.019 120.567 344.529 119.957C343.659 118.877 343.819 117.297 344.899 116.427ZM326.159 85.927C325.249 85.927 324.509 85.187 324.509 84.277C324.509 83.377 325.249 82.637 326.159 82.637C327.069 82.637 327.809 83.377 327.809 84.277C327.809 85.187 327.069 85.927 326.159 85.927ZM345.839 91.177C346.749 91.177 347.489 91.917 347.489 92.827C347.489 93.727 346.749 94.467 345.839 94.467C344.939 94.467 344.199 93.727 344.199 92.827C344.199 91.917 344.939 91.177 345.839 91.177Z" fill="#FA9664"/>
<path d="M353.999 119.247L356.569 121.737C356.569 121.737 352.079 120.137 348.569 121.317V121.307C348.529 121.037 348.499 120.647 348.469 120.177L350.939 118.837C351.939 118.287 353.179 118.457 353.999 119.247Z" fill="#DD6936"/>
<path d="M347.519 132.697L350.529 127.297C350.529 127.297 349.469 131.047 347.129 136.157C345.659 139.377 345.369 143.007 346.239 146.437L331.509 128.407C332.529 128.257 333.539 127.987 334.519 127.637C337.749 126.477 343.949 124.197 345.839 123.097L345.899 123.137C345.599 123.507 345.339 123.937 345.129 124.437L342.689 130.367C342.169 131.617 342.659 133.047 343.829 133.717C344.249 133.957 344.719 134.077 345.169 134.077C346.109 134.077 347.029 133.577 347.519 132.697Z" fill="#DD6936"/>
<path d="M347.149 150.047L348.579 155.657H348.569C339.209 164.157 327.019 159.567 327.019 159.567C318.839 156.617 315.639 150.487 314.739 144.227C316.589 144.647 318.439 144.807 320.349 144.867C321.029 147.077 322.149 149.217 323.889 151.107C327.279 154.797 332.289 156.687 337.259 156.117C340.549 155.737 344.359 154.257 347.149 150.047Z" fill="white"/>
<path d="M411.359 209.387C406.159 191.477 395.149 184.507 388.859 181.917C388.859 181.917 387.859 191.167 389.209 204.267L381.709 187.927L376.059 175.607L367.659 157.297C366.849 155.547 366.279 153.697 366.009 151.787C365.409 147.467 365.489 140.117 370.769 133.197L372.069 131.337C373.309 129.577 373.879 127.437 373.699 125.297L373.109 118.527L372.779 114.847L371.639 101.797C371.529 100.567 370.489 99.6171 369.249 99.6171C368.999 99.6171 368.759 99.6571 368.539 99.7271C368.169 99.8471 367.839 100.047 367.569 100.317C367.139 100.747 366.869 101.347 366.869 102.007V108.597C366.419 108.297 365.929 108.057 365.389 107.917L360.659 106.647C358.999 106.197 357.219 106.447 355.749 107.337L354.659 107.997C353.479 108.707 352.949 110.147 353.389 111.457L353.369 112.037C351.529 111.937 349.709 112.527 348.269 113.687C348.249 113.687 348.239 113.707 348.219 113.717L344.899 116.427C343.819 117.297 343.659 118.877 344.529 119.957C345.019 120.567 345.749 120.897 346.489 120.897C346.899 120.897 347.309 120.797 347.689 120.597L348.469 120.177L350.939 118.837C351.939 118.287 353.179 118.457 353.999 119.247L356.569 121.737C356.569 121.737 352.079 120.137 348.569 121.317C347.549 121.657 346.619 122.227 345.899 123.137C345.599 123.507 345.339 123.937 345.129 124.437L342.689 130.367C342.169 131.617 342.659 133.047 343.829 133.717C344.249 133.957 344.719 134.077 345.169 134.077C346.109 134.077 347.029 133.577 347.519 132.697L350.529 127.297C350.529 127.297 349.469 131.047 347.129 136.157C345.659 139.377 345.369 143.007 346.239 146.437L347.149 150.047L348.579 155.657L349.999 161.267C350.239 162.237 350.449 163.207 350.629 164.187C352.379 173.857 362.569 229.267 368.649 241.587C368.649 241.587 370.869 246.467 375.659 248.257C377.919 249.117 380.749 249.277 384.199 247.897C387.029 246.777 390.259 244.617 393.929 240.947C393.929 240.947 403.599 226.607 411.369 209.387H411.359Z" fill="#FA9664"/>
<path d="M320.349 144.867C317.829 136.697 321.299 127.687 321.299 127.687C323.629 128.387 326.539 128.767 330.159 128.557C330.609 128.537 331.059 128.487 331.509 128.407L346.239 146.437L347.149 150.047C344.359 154.257 340.549 155.737 337.259 156.117C332.289 156.687 327.279 154.797 323.889 151.107C322.149 149.217 321.029 147.077 320.349 144.867Z" fill="#FA9664"/>
<path d="M345.839 91.177C346.749 91.177 347.489 91.917 347.489 92.827C347.489 93.727 346.749 94.467 345.839 94.467C344.939 94.467 344.199 93.727 344.199 92.827C344.199 91.917 344.939 91.177 345.839 91.177Z" fill="black"/>
<path d="M326.159 82.637C327.069 82.637 327.809 83.377 327.809 84.277C327.809 85.187 327.069 85.927 326.159 85.927C325.249 85.927 324.509 85.187 324.509 84.277C324.509 83.377 325.249 82.637 326.159 82.637Z" fill="black"/>
<path d="M320.139 127.307C320.509 127.447 320.899 127.577 321.299 127.687C321.299 127.687 317.829 136.697 320.349 144.867C318.439 144.807 316.589 144.647 314.739 144.227C313.419 135.037 317.049 125.577 317.049 125.577C317.969 126.297 318.999 126.887 320.139 127.307Z" fill="white"/>
<path d="M290.389 134.717L288.359 147.317C286.539 146.197 284.799 144.987 283.159 143.637L290.389 134.717Z" fill="#CE3F38"/>
<path d="M283.159 143.637L290.389 134.717L288.359 147.317C299.149 153.957 312.539 157.227 322.489 165.197C339.139 178.527 339.709 195.207 338.309 215.147C337.279 229.857 338.979 246.487 349.349 257.927C357.929 267.407 369.899 273.277 382.049 271.407L375.659 248.267V248.257C370.869 246.467 368.649 241.587 368.649 241.587C362.569 229.267 352.379 173.857 350.629 164.187C350.449 163.207 350.239 162.237 349.999 161.267L348.579 155.657H348.569C339.209 164.157 327.019 159.567 327.019 159.567C318.839 156.617 315.639 150.487 314.739 144.227C313.039 143.837 311.329 143.227 309.579 142.237C305.669 140.037 302.849 136.757 301.359 132.547C298.799 125.307 302.219 115.187 298.779 108.857C292.069 109.777 284.659 111.037 278.289 112.197C277.599 112.327 276.909 112.437 276.219 112.537C275.049 114.287 273.949 116.097 273.399 118.377C271.669 125.587 272.689 131.327 277.059 137.277C278.849 139.717 280.909 141.807 283.159 143.637ZM407.289 175.407C402.669 172.167 397.599 169.997 392.759 167.477C388.379 165.197 384.179 162.627 380.669 158.707C375.109 152.517 378.999 142.117 381.279 135.237C381.699 133.967 383.369 129.437 384.289 125.057C381.109 122.407 377.769 119.837 374.309 117.447L373.109 118.527L373.699 125.297C373.879 127.437 373.309 129.577 372.069 131.337L370.769 133.197C365.489 140.117 365.409 147.467 366.009 151.787C366.279 153.697 366.849 155.547 367.659 157.297L376.059 175.607L391.529 168.797C389.829 170.737 388.149 172.987 386.639 175.607C386.639 175.607 405.239 176.117 414.539 201.887C415.639 199.077 416.659 196.237 417.529 193.417C416.159 186.167 413.029 179.427 407.289 175.407ZM403.749 159.337C403.989 159.507 404.239 159.667 404.489 159.817C408.699 162.337 412.939 162.287 417.069 161.007C416.769 160.507 416.449 160.027 416.119 159.547C412.649 154.557 405.649 145.547 396.329 136.147C395.939 140.497 395.469 144.627 395.999 147.147C397.029 152.047 399.519 156.507 403.749 159.337ZM371.739 307.517C368.379 309.447 365.039 310.537 361.619 310.777C358.309 311.007 354.939 310.447 351.439 309.077C337.369 303.557 336.049 290.687 336.499 277.457C336.609 274.177 336.729 269.097 335.939 264.427C335.209 260.177 333.739 256.277 330.819 254.397C325.449 250.937 319.889 254.017 315.459 258.717C311.559 262.857 308.529 268.247 307.279 271.527C303.149 282.357 302.489 296.257 305.779 307.667C307.229 308.177 308.749 308.667 310.339 309.137C319.699 311.917 331.409 313.927 345.839 314.087C350.839 314.147 356.169 313.977 361.839 313.537C366.059 313.217 370.479 312.737 375.089 312.097C378.889 311.567 382.129 309.467 384.199 306.507V306.497C385.629 304.457 386.499 302.017 386.629 299.407C385.709 299.567 384.809 299.807 383.939 300.137C379.509 301.807 375.799 305.187 371.739 307.517ZM309.479 188.127C304.519 184.117 298.079 182.647 292.449 179.717C290.619 178.767 288.619 177.937 286.619 177.037V202.967L282.009 252.897L279.429 280.897C279.019 285.327 280.129 289.657 282.449 293.267C283.769 295.327 285.479 297.157 287.539 298.627C286.859 293.857 286.789 288.777 287.029 283.357C287.479 273.377 290.019 263.357 294.599 254.447C294.799 254.047 295.009 253.657 295.219 253.267C303.319 238.297 321.009 226.887 321.069 208.417C321.089 199.957 315.809 193.257 309.479 188.127Z" fill="#EF7369"/>
<path d="M384.199 306.507C382.129 309.467 378.889 311.567 375.089 312.097C370.479 312.737 366.059 313.217 361.839 313.537C356.169 313.977 350.839 314.147 345.839 314.087C331.409 313.927 319.699 311.917 310.339 309.137C308.749 308.667 307.229 308.177 305.779 307.667C302.629 306.557 299.789 305.377 297.239 304.167C293.639 302.457 290.609 300.697 288.119 299.037C287.919 298.907 287.729 298.767 287.539 298.627C285.479 297.157 283.769 295.327 282.449 293.267L281.839 321.257L281.389 341.737H386.639L384.199 306.507Z" fill="#7A9BFC"/>
<path d="M288.359 147.317L287.389 153.317C287.229 154.277 287.099 155.247 286.989 156.217C284.649 155.907 280.089 154.607 275.439 153.167L283.159 143.637C284.799 144.987 286.539 146.197 288.359 147.317Z" fill="#CE3F38"/>
<path d="M277.059 137.277C272.689 131.327 271.669 125.587 273.399 118.377C273.949 116.097 275.049 114.287 276.219 112.537C273.649 112.937 271.069 113.197 268.489 113.307V113.317C268.489 113.317 270.359 132.087 268.829 151.047V151.057C270.889 151.727 273.179 152.467 275.439 153.167L283.159 143.637C280.909 141.807 278.849 139.717 277.059 137.277ZM301.359 132.547C302.849 136.757 305.669 140.037 309.579 142.237C311.329 143.227 313.039 143.837 314.739 144.227C313.419 135.037 317.049 125.577 317.049 125.577C313.819 123.067 312.029 118.977 312.469 114.747C312.689 112.567 313.079 110.107 313.589 107.497C309.969 107.497 304.639 108.047 298.779 108.857C302.219 115.187 298.799 125.307 301.359 132.547ZM384.649 280.847L382.049 271.407C369.899 273.277 357.929 267.407 349.349 257.927C338.979 246.487 337.279 229.857 338.309 215.147C339.709 195.207 339.139 178.527 322.489 165.197C312.539 157.227 299.149 153.957 288.359 147.317L287.389 153.317C287.229 154.277 287.099 155.247 286.989 156.217C286.749 158.417 286.619 160.627 286.619 162.837V177.037C288.619 177.937 290.619 178.767 292.449 179.717C298.079 182.647 304.519 184.117 309.479 188.127C315.809 193.257 321.089 199.957 321.069 208.417C321.009 226.887 303.319 238.297 295.219 253.267C295.009 253.657 294.799 254.047 294.599 254.447C290.019 263.357 287.479 273.377 287.029 283.357C286.789 288.777 286.859 293.857 287.539 298.627C287.729 298.767 287.919 298.907 288.119 299.037C290.609 300.697 293.639 302.457 297.239 304.167C299.789 305.377 302.629 306.557 305.779 307.667C302.489 296.257 303.149 282.357 307.279 271.527C308.529 268.247 311.559 262.857 315.459 258.717C319.889 254.017 325.449 250.937 330.819 254.397C333.739 256.277 335.209 260.177 335.939 264.427C336.729 269.097 336.609 274.177 336.499 277.457C336.049 290.687 337.369 303.557 351.439 309.077C354.939 310.447 358.309 311.007 361.619 310.777C365.039 310.537 368.379 309.447 371.739 307.517C375.799 305.187 379.509 301.807 383.939 300.137C384.809 299.807 385.709 299.567 386.629 299.407C386.639 299.137 386.639 298.857 386.639 298.577C386.589 294.997 386.519 291.167 386.419 287.247L384.649 280.847ZM417.069 161.007C412.939 162.287 408.699 162.337 404.489 159.817C404.239 159.667 403.989 159.507 403.749 159.337C399.519 156.507 397.029 152.047 395.999 147.147C395.469 144.627 395.939 140.497 396.329 136.147C392.659 132.437 388.619 128.667 384.289 125.057C383.369 129.437 381.699 133.967 381.279 135.237C378.999 142.117 375.109 152.517 380.669 158.707C384.179 162.627 388.379 165.197 392.759 167.477C397.599 169.997 402.669 172.167 407.289 175.407C413.029 179.427 416.159 186.167 417.529 193.417C419.529 187.017 420.839 180.697 420.929 174.967C421.009 170.037 419.609 165.217 417.069 161.007Z" fill="#FF8983"/>
<path d="M268.489 113.317C268.489 113.317 270.359 132.087 268.829 151.047C266.529 150.297 264.509 149.607 263.119 149.137C264.289 134.567 261.959 113.357 261.959 113.357V113.347C264.139 113.437 266.319 113.427 268.489 113.307V113.317Z" fill="white"/>
<path d="M261.959 113.357V113.347C256.589 113.147 251.239 112.377 246.009 111.037L179.579 94.0171L164.319 77.1771C163.339 76.0971 161.869 75.5771 160.429 75.8171L158.419 76.1371L158.269 76.3671L156.859 75.4871C155.609 74.6971 153.999 74.7471 152.789 75.6171L149.149 78.2371L149.159 78.4071C148.159 78.4371 147.209 78.8171 146.469 79.5071L142.989 82.7171L136.969 83.1971C135.799 83.3371 134.959 84.3971 135.099 85.5771C135.229 86.6571 136.149 87.4671 137.229 87.4671C137.289 87.4671 137.339 87.4571 137.399 87.4571L143.209 86.9771C144.519 86.8671 145.829 86.9971 147.089 87.3671L151.979 88.7871C153.669 89.2771 154.649 91.0371 154.169 92.7371C153.779 94.1471 152.489 95.0871 151.079 95.0871C150.829 95.0871 150.579 95.0571 150.329 94.9971L140.319 92.5871C138.899 92.2471 137.469 93.0971 137.089 94.5071C137.029 94.7471 136.999 94.9771 136.999 95.2171C136.999 96.3671 137.739 97.4371 138.899 97.7871L150.349 101.297C151.759 101.727 153.099 102.337 154.349 103.117L157.509 105.077C159.899 106.567 162.709 107.237 165.509 106.997L168.109 106.777C169.329 106.667 170.559 106.887 171.669 107.397L261.119 148.447C261.119 148.447 261.869 148.707 263.119 149.137C264.289 134.567 261.959 113.357 261.959 113.357Z" fill="#FA9664"/>
<path d="M312.469 114.747C312.299 118.304 313.65 121.835 316.127 124.239C318.579 126.723 322.102 127.647 325.55 127.99C327.278 128.152 329.059 128.187 330.777 128.011C332.515 127.909 334.133 127.324 335.832 126.752C337.516 126.187 339.196 125.608 340.867 125.007C342.546 124.425 344.222 123.838 345.839 123.096C342.754 124.9 339.394 126.147 336.096 127.475C334.472 128.141 332.706 128.787 330.878 128.953C329.062 129.165 327.266 129.136 325.456 128.985C323.651 128.807 321.861 128.434 320.144 127.805C318.404 127.184 316.83 126.115 315.581 124.775C314.329 123.431 313.398 121.811 312.847 120.084C312.327 118.346 312.185 116.507 312.469 114.747Z" fill="#C44C22"/>
<path d="M396.199 219.507C394.621 216.561 393.143 213.57 391.679 210.571C390.205 207.577 388.804 204.551 387.4 201.525C386.019 198.489 384.64 195.452 383.33 192.383L381.37 187.778C380.75 186.227 380.099 184.691 379.507 183.128C381.086 186.073 382.564 189.065 384.029 192.063C385.503 195.057 386.906 198.083 388.308 201.109C389.688 204.146 391.067 207.183 392.374 210.253C393.693 213.317 394.996 216.389 396.199 219.507Z" fill="#C44C22"/>
<path d="M369.829 115.107C369.338 114.04 368.942 112.948 368.579 111.848C368.268 110.772 367.706 109.884 366.88 109.228C366.486 108.899 366.011 108.632 365.532 108.453C365.045 108.278 364.442 108.118 363.91 107.924C362.811 107.553 361.722 107.148 360.659 106.647C361.83 106.746 362.975 106.941 364.11 107.17C364.693 107.283 365.213 107.399 365.834 107.556C366.448 107.752 367.001 108.054 367.508 108.45C368.499 109.239 369.169 110.461 369.331 111.651C369.552 112.789 369.738 113.936 369.829 115.107Z" fill="#C44C22"/>
<path d="M350.529 127.297C349.803 130.415 348.698 133.439 347.447 136.386C346.254 139.257 345.924 142.465 346.542 145.497C347.248 148.554 348.064 151.681 348.753 154.786C349.442 157.902 350.207 161.009 350.628 164.187C350.18 162.647 349.814 161.105 349.318 159.581L348.007 154.975C347.137 151.891 346.312 148.846 345.561 145.69C344.925 142.463 345.316 139.023 346.748 136.071C347.451 134.641 348.109 133.196 348.733 131.731C349.382 130.276 349.967 128.794 350.529 127.297Z" fill="#C44C22"/>
<path d="M356.569 121.737C354.675 121.329 352.744 121.136 350.881 121.294C349.036 121.464 347.212 122.122 346.182 123.587C345.917 123.937 345.707 124.313 345.533 124.74L344.967 126.075C344.573 126.958 344.197 127.849 343.786 128.726L343.176 130.043C342.952 130.497 342.768 130.864 342.729 131.313C342.608 132.197 343.041 133.144 343.829 133.716C342.92 133.34 342.272 132.355 342.24 131.296C342.214 130.766 342.414 130.223 342.571 129.792L343.065 128.427C343.39 127.515 343.75 126.617 344.092 125.712L344.63 124.365C344.813 123.894 345.066 123.412 345.382 122.988C346.01 122.148 346.889 121.474 347.852 121.086C348.819 120.711 349.835 120.526 350.837 120.518C352.842 120.486 354.788 120.961 356.569 121.737Z" fill="#C44C22"/>
<path d="M365.759 122.587C365.016 121.301 364.321 119.991 363.604 118.692C363.242 118.044 362.91 117.381 362.562 116.727C362.225 116.051 361.874 115.47 361.396 114.94C360.454 113.898 359.189 113.173 357.836 112.888C357.177 112.737 356.439 112.754 355.692 112.688L353.474 112.538L353.509 112.539C353.012 112.508 352.607 112.521 352.164 112.573C351.73 112.627 351.3 112.712 350.882 112.842C350.046 113.099 349.257 113.515 348.571 114.061L348.271 114.168C348.442 114.168 348.554 114.066 348.554 114.066C348.563 114.056 348.52 114.103 348.435 114.146L348.523 114.089L345.503 116.488C345.239 116.702 345.008 116.863 344.841 117.061C344.665 117.263 344.528 117.502 344.441 117.76C344.265 118.276 344.296 118.869 344.538 119.374C345.001 120.423 346.349 120.946 347.463 120.486L350.938 118.837C349.844 119.527 348.76 120.184 347.627 120.848C346.388 121.537 344.628 120.988 343.955 119.674C343.603 119.037 343.511 118.256 343.708 117.541C343.806 117.184 343.974 116.843 344.203 116.546C344.436 116.237 344.732 116.017 344.961 115.821L347.914 113.344L348.002 113.287C347.935 113.322 347.907 113.354 347.931 113.332C347.942 113.321 348.075 113.205 348.266 113.206L347.966 113.312C348.739 112.683 349.633 112.2 350.584 111.898C351.06 111.748 351.55 111.637 352.047 111.583C352.535 111.527 353.07 111.521 353.508 111.556L353.544 111.557L355.761 111.729C356.487 111.797 357.245 111.81 358.033 112.002C359.576 112.358 360.976 113.25 361.944 114.476C362.433 115.074 362.81 115.798 363.095 116.466C363.398 117.143 363.718 117.811 364.007 118.495C364.592 119.858 365.2 121.211 365.759 122.587Z" fill="#C44C22"/>
<path d="M406.769 158.047C405.327 158.672 403.946 159.408 402.616 160.223C401.274 161.016 399.983 161.89 398.75 162.836C397.508 163.769 396.313 164.762 395.173 165.813C394.021 166.852 392.959 167.988 391.91 169.12L391.752 169.29L391.539 169.289H391.529L391.899 169.121C390.178 171.062 388.63 173.146 387.219 175.329C386.516 176.425 385.87 177.556 385.249 178.703C384.605 179.84 384.08 181.038 383.496 182.217C383.889 180.964 384.327 179.722 384.845 178.508C385.362 177.294 385.968 176.12 386.601 174.961C387.867 172.637 389.425 170.472 391.16 168.472L391.305 168.305L391.53 168.304H391.54L391.169 168.473C393.274 166.085 395.652 163.955 398.277 162.172C399.593 161.289 400.96 160.485 402.369 159.769C403.791 159.085 405.245 158.449 406.769 158.047Z" fill="#A51E1E"/>
<path d="M291.379 128.617C290.93 132.662 290.376 136.691 289.81 140.717C289.245 144.743 288.591 148.755 287.982 152.776C287.669 154.777 287.354 156.761 287.217 158.779C287.041 160.793 287.058 162.803 287.004 164.842L286.865 170.94C286.782 172.973 286.733 175.005 286.62 177.038C286.507 175.005 286.458 172.973 286.375 170.94L286.236 164.842C286.075 160.778 286.351 156.649 286.998 152.615C287.689 148.61 288.328 144.596 289.056 140.595L290.163 134.597C290.569 132.604 290.942 130.605 291.379 128.617Z" fill="#A51E1E"/>
<path d="M310.339 309.137C310.613 311.849 310.778 314.563 310.925 317.277C311.085 319.991 311.163 322.708 311.242 325.424C311.297 328.141 311.35 330.858 311.325 333.577L311.285 337.655C311.235 339.015 311.219 340.375 311.139 341.736C310.993 340.381 310.911 339.023 310.795 337.667L310.556 333.595C310.399 330.88 310.32 328.164 310.243 325.448C310.189 322.731 310.137 320.014 310.16 317.295C310.172 314.578 310.201 311.859 310.339 309.137Z" fill="#3660C9"/>
<path d="M375.089 312.097C375.089 312.097 377.179 323.057 378.019 333.827C378.229 336.537 378.359 339.237 378.359 341.737" fill="#3660C9"/>
<path d="M345.839 314.097C346.149 315.828 346.683 317.503 347.383 319.095C348.07 320.692 348.925 322.212 349.946 323.604C351.977 326.398 354.655 328.678 357.701 330.273C360.739 331.905 364.121 332.821 367.549 333.361C368.406 333.507 369.276 333.57 370.142 333.679L372.757 333.83L375.384 333.88C376.26 333.851 377.138 333.834 378.019 333.826L378.029 333.827L378.019 333.828C374.541 334.353 370.984 334.509 367.453 334.126C363.928 333.755 360.411 332.838 357.234 331.157C354.072 329.476 351.269 327.047 349.318 324.041C347.362 321.056 346.074 317.62 345.839 314.097Z" fill="#3660C9"/>
<path d="M281.839 321.257C283.682 320.489 285.346 319.412 286.911 318.243C288.458 317.046 289.895 315.715 291.165 314.234C293.737 311.284 295.653 307.83 297.239 304.167C296.41 308.076 294.57 311.817 291.921 314.888C290.586 316.414 289.054 317.773 287.358 318.878C285.666 319.979 283.805 320.857 281.839 321.257Z" fill="#3660C9"/>
<path d="M161.909 78.6471C160.757 78.1701 159.655 77.6111 158.575 77.0181C158.03 76.7291 157.502 76.4131 156.966 76.1101C156.685 75.9541 156.456 75.7911 156.217 75.6951C155.973 75.5901 155.716 75.5161 155.454 75.4741C154.932 75.3711 154.386 75.4221 153.876 75.5811C153.618 75.6551 153.372 75.7711 153.14 75.9101L152.373 76.3971C151.332 77.0561 150.27 77.6861 149.15 78.2361C150.027 77.3481 150.962 76.5421 151.918 75.7631C152.162 75.5641 152.379 75.3771 152.654 75.1801C152.934 74.9801 153.238 74.8091 153.563 74.6861C154.215 74.4471 154.932 74.3721 155.623 74.4881C156.298 74.5921 156.996 74.9681 157.468 75.3091C157.975 75.6581 158.492 75.9911 158.988 76.3581C159.99 77.0771 160.976 77.8181 161.909 78.6471Z" fill="#C44C22"/>
<path d="M158.109 79.137C155.304 79.247 152.522 79.03 149.78 78.911C148.442 78.794 147.327 79.211 146.321 80.175C145.254 81.07 144.143 81.918 142.989 82.718C143.879 81.632 144.813 80.594 145.79 79.603C146.228 79.11 146.863 78.544 147.574 78.258C148.292 77.947 149.094 77.879 149.815 77.913C152.63 78.067 155.381 78.465 158.109 79.137Z" fill="#C44C22"/>
<path d="M155.529 81.717C152.467 82.356 149.381 82.692 146.289 82.955C143.195 83.188 140.094 83.345 136.969 83.197C140.031 82.556 143.117 82.22 146.209 81.959C149.304 81.728 152.404 81.572 155.529 81.717Z" fill="#C44C22"/>
<path d="M331.509 85.447C330.812 87.784 329.938 90.033 329.002 92.251C328.077 94.475 327.048 96.647 325.998 98.809L324.405 101.921C324.127 102.516 324.486 103.345 325.283 103.549C327.45 104.136 329.811 104.049 332.17 103.437C330.161 104.815 327.538 105.456 324.981 105.08C324.22 105.004 323.369 104.513 322.936 103.783C322.474 103.067 322.342 102.119 322.625 101.278L322.745 100.973L322.844 100.762L323.039 100.356L323.429 99.543L324.21 97.919C325.295 95.775 326.401 93.641 327.611 91.56C328.809 89.473 330.071 87.416 331.509 85.447Z" fill="#C44C22"/>
<path d="M320.779 108.867C322.511 109.932 324.395 110.679 326.324 111.102C328.254 111.5 330.246 111.606 332.168 111.216C332.653 111.153 333.117 110.982 333.593 110.871C333.828 110.804 334.07 110.758 334.3 110.673L334.981 110.392C335.432 110.197 335.91 110.059 336.342 109.818L337.644 109.102C338.097 108.89 338.488 108.579 338.898 108.295L340.135 107.44C340.925 106.821 341.666 106.135 342.477 105.507C341.832 106.289 341.151 107.054 340.456 107.811L339.291 108.821C338.9 109.158 338.512 109.501 338.063 109.761C336.376 110.973 334.396 111.766 332.347 112.199C330.28 112.598 328.124 112.436 326.131 111.855C324.133 111.28 322.281 110.244 320.779 108.867Z" fill="#C44C22"/>
<path d="M341.739 84.797C342.841 84.309 344.03 84.167 345.214 84.179C346.399 84.207 347.595 84.438 348.723 84.9C349.849 85.359 350.906 86.065 351.724 86.987C352.548 87.891 353.122 89.044 353.229 90.237C352.361 89.408 351.573 88.714 350.681 88.163C349.817 87.596 348.916 87.143 347.965 86.75C346.056 85.959 344.002 85.471 341.739 84.797Z" fill="#3E2B7C"/>
<path d="M321.959 76.357L321.969 76.352H321.97C322.771 76.002 323.59 75.924 324.398 75.934C325.205 75.959 326.007 76.103 326.774 76.375C327.54 76.649 328.274 77.046 328.918 77.575C329.547 78.123 330.102 78.795 330.359 79.627C329.515 79.396 328.83 79.163 328.139 78.94C327.448 78.722 326.779 78.504 326.107 78.26C325.434 78.019 324.756 77.767 324.07 77.469C323.383 77.162 322.691 76.838 321.969 76.362L321.959 76.357Z" fill="#3E2B7C"/>
<path d="M389.489 80.047C389.159 80.637 388.829 81.217 388.559 81.847C388.209 82.697 387.729 83.977 387.409 85.397C387.399 85.457 387.379 85.517 387.369 85.577C387.359 85.637 387.339 85.707 387.329 85.767C387.019 87.257 386.879 88.857 387.209 90.307C387.209 90.307 387.799 92.317 387.649 94.887C387.459 98.337 385.919 102.807 379.799 104.707H379.789L378.419 102.767L378.349 102.667L378.279 102.567L372.209 94.017L368.669 96.887L368.539 96.987L368.399 97.097L363.499 101.067C363.709 98.757 363.519 96.737 363.099 94.987C362.599 92.877 361.749 91.167 360.869 89.837C360.699 89.587 360.529 89.347 360.359 89.117C359.149 87.507 357.489 86.307 355.669 85.437C347.689 81.597 348.509 74.337 348.509 74.337C349.559 69.827 347.909 67.627 346.619 66.637C346.019 66.177 345.279 65.937 344.529 65.837C342.999 65.617 341.739 65.177 340.699 64.627C339.459 63.977 338.489 63.037 337.829 61.947C336.819 60.317 336.479 58.347 336.869 56.527C336.889 56.437 336.909 56.357 336.929 56.267C336.949 56.187 336.969 56.107 336.999 56.027C337.049 55.817 337.119 55.617 337.199 55.417C337.699 54.137 338.609 52.987 339.939 52.167C340.649 51.737 341.399 51.447 342.109 51.337C342.729 51.247 343.329 51.287 343.869 51.487C344.109 51.577 344.349 51.657 344.599 51.737C348.109 52.817 351.879 52.477 355.189 50.977L355.439 50.867C356.179 50.527 356.889 50.117 357.569 49.657C357.589 49.647 357.599 49.637 357.619 49.627C357.839 49.477 358.069 49.317 358.279 49.157C359.599 48.167 361.059 47.397 362.619 46.887C363.049 46.747 363.479 46.627 363.929 46.537L364.199 46.477C364.929 46.337 365.689 46.247 366.439 46.227C368.969 46.167 371.929 46.767 374.779 48.907C377.189 50.717 378.879 53.307 379.779 56.177C380.399 58.177 381.669 61.047 384.129 62.997C385.349 63.977 386.509 65.027 387.429 66.277C389.669 69.327 392.509 74.777 389.489 80.047Z" fill="#3E2B7C"/>
<path d="M362.619 46.887C361.059 47.397 359.599 48.167 358.279 49.157C358.099 49.297 357.909 49.427 357.719 49.557C357.689 49.577 357.649 49.607 357.619 49.627C357.599 49.637 357.589 49.647 357.569 49.657C357.549 49.667 357.539 49.677 357.519 49.687C356.819 50.167 356.079 50.577 355.319 50.927C351.979 52.467 348.159 52.827 344.599 51.737C344.349 51.657 344.109 51.577 343.869 51.487C343.369 51.307 342.819 51.257 342.249 51.317C342.199 51.327 342.159 51.327 342.109 51.337C342.059 51.347 342.019 51.357 341.969 51.367C341.299 51.487 340.599 51.767 339.939 52.167C338.649 52.957 337.759 54.067 337.259 55.297H337.249C337.229 55.337 337.219 55.377 337.199 55.417C337.179 55.457 337.169 55.507 337.159 55.547H337.149C337.059 55.787 336.989 56.017 336.929 56.267C336.449 58.157 336.769 60.237 337.829 61.947H337.819C332.049 66.247 327.969 67.257 325.099 66.717C319.559 65.697 318.549 58.897 318.549 58.897C318.539 58.817 318.529 58.737 318.529 58.667L318.489 58.277V58.267C317.979 52.617 320.239 49.537 322.669 47.867C324.719 46.457 327.249 45.907 329.729 46.117C331.009 46.227 332.209 46.287 333.329 46.297C333.419 46.307 333.499 46.307 333.579 46.307H333.829C340.439 46.347 344.349 44.957 345.929 44.257C346.019 44.217 346.119 44.177 346.209 44.137C346.259 44.117 346.299 44.097 346.349 44.077C346.399 44.057 346.459 44.037 346.509 44.017C347.749 43.497 349.039 43.107 350.359 42.907C358.319 41.717 362.619 46.887 362.619 46.887Z" fill="#3E2B7C"/>
<path d="M364.529 83.517C363.879 82.677 363.219 81.917 362.589 81.177C360.369 78.597 358.459 76.367 358.159 72.437C357.789 67.887 356.359 65.427 352.859 63.347C350.809 62.137 348.599 62.1271 346.459 62.1171C344.769 62.107 343.019 62.097 341.369 61.497C339.279 60.737 337.539 58.6171 337.049 56.2271C337.029 56.1871 337.029 56.1371 337.019 56.0871L337.009 56.0571C337.009 56.0471 337.009 56.037 336.999 56.027C336.969 56.107 336.949 56.187 336.929 56.267C336.909 56.357 336.889 56.437 336.869 56.527C337.429 58.897 339.179 60.967 341.289 61.737C342.979 62.347 344.749 62.357 346.449 62.3671C348.559 62.3771 350.739 62.387 352.739 63.567C356.149 65.597 357.549 68.007 357.909 72.457C358.219 76.467 360.159 78.7271 362.399 81.3371C363.029 82.0771 363.679 82.837 364.329 83.677C365.899 85.697 367.139 88.317 367.829 91.047C368.359 93.067 368.559 95.1171 368.409 96.9771C368.409 97.0171 368.409 97.057 368.399 97.097L368.539 96.987L368.669 96.887C368.799 95.037 368.599 92.997 368.069 90.987C367.369 88.227 366.119 85.577 364.529 83.517ZM380.149 93.2271C379.659 91.237 378.669 89.317 377.369 87.817C376.489 86.807 375.489 85.827 374.419 84.787C371.239 81.697 367.949 78.487 367.899 74.297C367.869 72.937 367.959 71.527 368.039 70.157C368.319 65.367 368.599 60.417 364.619 56.687C363.279 55.437 361.579 54.567 359.939 53.717L359.429 53.457C358.039 52.737 356.579 51.9471 355.439 50.8671L355.189 50.9771C355.199 50.9871 355.219 51.007 355.229 51.017C356.409 52.137 357.899 52.947 359.309 53.677L359.829 53.9471C361.449 54.7771 363.139 55.6371 364.449 56.8671C368.349 60.5271 368.059 65.407 367.789 70.137C367.709 71.507 367.619 72.927 367.649 74.297C367.709 78.597 371.029 81.837 374.249 84.967C375.309 86.007 376.309 86.9771 377.179 87.9771C378.449 89.4571 379.419 91.337 379.909 93.287C380.049 93.857 380.149 94.4671 380.219 95.0871C380.389 96.9071 380.199 100.807 378.279 102.567L378.349 102.667L378.419 102.767L378.429 102.757C380.449 100.937 380.639 96.927 380.459 95.067C380.399 94.427 380.299 93.8071 380.149 93.2271ZM383.539 80.677C382.899 80.047 382.219 79.447 381.549 78.877C380.429 77.897 379.259 76.887 378.339 75.687C375.769 72.367 376.129 68.817 376.509 65.047C376.649 63.687 376.789 62.2771 376.789 60.8671C376.779 54.9171 373.059 52.317 368.199 49.547C366.389 48.517 365.189 47.5971 364.199 46.4771L363.929 46.537C363.939 46.557 363.959 46.5671 363.969 46.5871C364.979 47.7471 366.209 48.697 368.079 49.767C372.859 52.497 376.529 55.0471 376.539 60.8671C376.539 62.267 376.399 63.667 376.259 65.027C375.869 68.837 375.509 72.447 378.139 75.847C379.079 77.057 380.259 78.077 381.389 79.067C382.049 79.637 382.729 80.227 383.359 80.857C385.009 82.497 386.289 84.057 387.259 85.637C387.289 85.677 387.309 85.727 387.329 85.767C387.339 85.707 387.359 85.637 387.369 85.577C387.379 85.517 387.399 85.4571 387.409 85.397C386.429 83.837 385.159 82.287 383.539 80.677Z" fill="#5E4DDB"/>
<path d="M337.189 55.297C335.099 55.447 333.219 56.857 331.229 58.347C330.079 59.207 328.899 60.097 327.609 60.797C324.489 62.477 320.749 60.727 318.599 58.387C318.559 58.347 318.539 58.317 318.489 58.277L318.529 58.667C320.129 60.357 322.529 61.717 324.929 61.717C325.879 61.717 326.829 61.507 327.729 61.017C329.039 60.307 330.229 59.417 331.379 58.547C333.319 57.087 335.149 55.707 337.149 55.547H337.159C337.169 55.507 337.179 55.457 337.199 55.417C337.219 55.377 337.229 55.337 337.249 55.297H337.189ZM342.199 51.257C340.849 49.717 338.819 48.767 336.839 47.847C335.829 47.367 334.789 46.877 333.829 46.307H333.579C333.499 46.307 333.419 46.307 333.329 46.297C333.389 46.347 333.449 46.377 333.509 46.417C334.529 47.037 335.649 47.557 336.739 48.067C338.759 49.017 340.649 49.907 341.969 51.367C342.019 51.357 342.059 51.347 342.109 51.337C342.159 51.327 342.199 51.327 342.249 51.317C342.239 51.297 342.219 51.277 342.199 51.257ZM357.709 49.547C356.459 48.147 354.669 47.267 352.929 46.487C352.279 46.187 351.419 45.897 350.509 45.587C349.209 45.157 347.739 44.667 346.509 44.017C346.459 44.037 346.399 44.057 346.349 44.077C346.299 44.097 346.259 44.117 346.209 44.137C346.229 44.157 346.259 44.167 346.289 44.187C347.559 44.867 349.089 45.377 350.429 45.827C351.329 46.127 352.189 46.417 352.829 46.707C354.529 47.487 356.289 48.337 357.519 49.687C357.539 49.677 357.549 49.667 357.569 49.657C357.589 49.647 357.599 49.637 357.619 49.627C357.649 49.607 357.689 49.577 357.719 49.557L357.709 49.547Z" fill="#5E4DDB"/>
<path d="M378.696 53.564C377.66 51.788 376.294 50.209 374.628 49.049C372.963 47.894 371.08 47.06 369.091 46.761C367.109 46.443 365.069 46.595 363.164 47.188C362.203 47.438 361.282 47.854 360.406 48.326C359.505 48.804 358.764 49.379 357.882 50.013L357.828 50.045L357.778 50.075L357.832 50.044C355.326 51.766 352.32 52.787 349.266 52.839C347.742 52.866 346.212 52.684 344.748 52.249C344.381 52.155 344.016 52.004 343.673 51.891C343.379 51.785 343.059 51.734 342.732 51.732C342.075 51.723 341.41 51.913 340.779 52.201C339.524 52.778 338.429 53.753 337.778 54.993C337.15 56.238 336.858 57.688 337.067 59.103C337.26 60.51 337.849 61.885 338.796 62.981C339.269 63.529 339.83 64.004 340.449 64.39C341.079 64.76 341.767 65.029 342.432 65.357C341.75 65.083 341.03 64.874 340.363 64.539C339.707 64.182 339.099 63.728 338.572 63.187C337.527 62.101 336.779 60.7 336.531 59.184C336.254 57.67 336.499 56.085 337.15 54.673C337.831 53.27 339 52.108 340.418 51.43C341.123 51.097 341.909 50.854 342.735 50.854C343.146 50.853 343.566 50.911 343.97 51.05C344.33 51.164 344.651 51.294 345 51.379C346.373 51.769 347.814 51.923 349.241 51.88C352.095 51.77 354.925 50.862 357.308 49.271L357.362 49.239L357.412 49.209L357.358 49.241C358.972 48.022 360.881 46.884 362.929 46.361C364.961 45.742 367.145 45.707 369.21 46.103C371.281 46.506 373.247 47.413 374.873 48.722C376.509 50.023 377.821 51.7 378.696 53.564Z" fill="#110647"/>
</svg>
